<?xml version="1.0" encoding="UTF-8" standalone="no"?>
<!-- Created with Inkscape (http://www.inkscape.org/) -->

<svg
   width="50px"
   height="50px"
   viewBox="0 0 210 297"
   version="1.1"
   id="svg5"
   sodipodi:docname="github.svg"
   inkscape:version="1.1.2 (b8e25be833, 2022-02-05)"
   xmlns:inkscape="http://www.inkscape.org/namespaces/inkscape"
   xmlns:sodipodi="http://sodipodi.sourceforge.net/DTD/sodipodi-0.dtd"
   xmlns="http://www.w3.org/2000/svg"
   xmlns:svg="http://www.w3.org/2000/svg">
  <sodipodi:namedview
     id="namedview7"
     pagecolor="#505050"
     bordercolor="#eeeeee"
     borderopacity="1"
     inkscape:pageshadow="0"
     inkscape:pageopacity="0"
     inkscape:pagecheckerboard="0"
     inkscape:document-units="mm"
     showgrid="false"
     inkscape:zoom="8.3755251"
     inkscape:cx="24.41638"
     inkscape:cy="37.072303"
     inkscape:window-width="1284"
     inkscape:window-height="1040"
     inkscape:window-x="250"
     inkscape:window-y="4"
     inkscape:window-maximized="0"
     inkscape:current-layer="layer1" />
  <defs
     id="defs2" />
  <g
     inkscape:label="Layer 1"
     inkscape:groupmode="layer"
     id="layer1">
    <path
       id="Selection"
       fill="#ffffff"
       stroke="#ffffff"
       stroke-width="0.0877719px"
       d="m 68.950933,262.3434 c 0,0 0,23.4697 0,23.4697 0,1.54415 0.05122,3.45886 -0.338097,4.94106 -2.40261,9.27679 -13.361321,4.41608 -18.939543,2.1009 -18.31918,-7.60894 -31.048082,-16.74997 -45.7828298,-30.066 -3.32521525,-3.00771 -6.1204725,-6.36153 -9.0781391,-9.70906 -18.5240831,-20.93127 -30.8613431,-48.10066 -35.2346931,-75.96779 0,0 -1.524036,-16.6759 -1.524036,-16.6759 0,0 -0.548141,-7.41172 -0.548141,-7.41172 0,0 0,-3.08807 0,-3.08807 0,0 0.548141,-6.17612 0.548141,-6.17612 0.824773,-12.34647 2.656429,-24.5569 6.198604,-36.44012 0,0 3.698674,-10.499524 3.698674,-10.499524 C -26.50087,80.589465 -14.235831,61.702616 -2.7540769,49.263445 10.679466,34.700002 25.848113,23.243005 43.649116,14.86802 94.871596,-9.2442765 157.14219,-0.73326675 200.2742,36.565084 c 14.1264,12.216738 26.72879,28.009469 35.34919,44.815094 0,0 3.65668,8.029122 3.65668,8.029122 10.01201,20.7275 13.66252,45.64235 13.40357,68.55635 0,0 -1.11422,12.35251 -1.11422,12.35251 -4.57826,39.28711 -22.90946,74.57831 -53.10203,99.56144 -12.83137,10.6169 -24.4878,17.46006 -39.75865,23.7168 -5.63869,2.31099 -14.37333,5.67585 -16.98802,-2.8412 -0.54301,-1.77264 -0.48153,-3.71807 -0.48153,-5.55847 0,0 0,-25.32267 0,-25.32267 0,0 0.54814,-7.41173 0.54814,-7.41173 0.32529,-4.89141 -0.73514,-13.16162 -2.00559,-17.91096 -2.66283,-9.91915 -5.8254,-10.85168 -8.18087,-16.05824 4.78933,-0.0525 9.78919,-1.15549 14.45786,-2.2112 16.22266,-3.6687 29.91542,-10.32672 40.07191,-24.34681 8.8494,-12.2044 11.72893,-27.7747 12.36133,-42.61626 0,0 0.45081,-5.55846 0.45081,-5.55846 -0.51227,-10.15392 -3.27705,-19.45539 -7.86145,-28.41101 0,0 -7.03593,-11.11717 -7.03593,-11.11717 -0.30738,-1.55729 0.66851,-3.98359 1.07322,-5.558724 0.73513,-2.865633 1.26535,-6.305868 1.3012,-9.264196 0.0768,-6.973149 -0.37909,-12.420526 -2.4231,-19.146559 -0.74024,-2.439665 -1.44462,-5.305299 -4.21683,-5.972329 -2.00559,-0.48059 -6.95167,0.790463 -9.02384,1.389215 -7.05411,2.032625 -13.5903,5.181867 -19.87933,9.029674 -1.69821,1.037311 -6.93987,4.551861 -8.43368,4.897725 -1.8186,0.420181 -10.21694,-1.704357 -12.65052,-2.174436 0,0 -20.48178,-2.284729 -20.48178,-2.284729 0,0 -4.21683,-0.451685 -4.21683,-0.451685 0,0 -4.21685,0.451685 -4.21685,0.451685 0,0 -19.879329,2.166552 -19.879329,2.166552 0,0 -12.650514,2.334629 -12.650514,2.334629 -1.890324,-0.283624 -7.590214,-4.21834 -9.638574,-5.416391 -5.578221,-3.273457 -12.511962,-6.596295 -18.674435,-8.46768 -2.348809,-0.716929 -8.602219,-2.339869 -10.710783,-1.050451 -2.161813,1.328819 -3.337252,6.793794 -3.873357,9.251854 -1.198724,5.521694 -2.174618,11.642405 -1.426696,17.293569 0,0 1.398525,8.029104 1.398525,8.029104 0.404703,1.489023 1.229477,3.409243 0.896502,4.941073 0,0 -6.608173,10.49977 -6.608173,10.49977 0,0 -4.012185,8.02913 -4.012185,8.02913 -2.330882,5.91062 -3.963781,14.6191 -3.975818,20.99929 -0.05122,27.52127 7.34329,52.70188 33.132296,65.91917 7.722896,3.95889 16.246727,6.19479 24.698613,7.81904 0,0 9.036118,1.61244 9.036118,1.61244 -2.819331,4.3297 -5.072357,6.67667 -6.969831,11.7351 -0.722332,1.92759 -2.023518,7.80039 -3.018108,8.83193 -1.31401,1.36559 -5.590278,2.35827 -7.481862,2.82257 -8.427812,2.06938 -18.849394,1.2973 -25.903504,-4.31709 -10.168531,-8.0911 -11.469717,-18.67097 -24.096177,-24.35917 -2.9094997,-1.31043 -9.10834,-3.29211 -11.89747046,-0.98216 -2.22842024,1.85929 0.17927282,4.13194 1.67003465,5.45367 0,0 4.20481441,3.13744 4.20481441,3.13744 3.9817084,3.05733 6.5782094,6.39251 9.2226014,10.64789 3.69891,5.96026 5.476016,12.94548 9.765089,18.5289 7.252886,9.45588 18.939543,13.7173 30.40928,13.58783 0,0 14.45784,-1.85405 14.45784,-1.85405 z" />
  </g>
</svg>
