<?xml version="1.0" encoding="UTF-8" standalone="no"?>
<!-- Created with Inkscape (http://www.inkscape.org/) -->

<svg
   width="50px"
   height="50px"
   viewBox="0 0 210 297"
   version="1.1"
   id="svg5"
   inkscape:version="1.1.2 (b8e25be833, 2022-02-05)"
   sodipodi:docname="instagram.svg"
   xmlns:inkscape="http://www.inkscape.org/namespaces/inkscape"
   xmlns:sodipodi="http://sodipodi.sourceforge.net/DTD/sodipodi-0.dtd"
   xmlns="http://www.w3.org/2000/svg"
   xmlns:svg="http://www.w3.org/2000/svg">
  <sodipodi:namedview
     id="namedview7"
     pagecolor="#505050"
     bordercolor="#eeeeee"
     borderopacity="1"
     inkscape:pageshadow="0"
     inkscape:pageopacity="0"
     inkscape:pagecheckerboard="0"
     inkscape:document-units="mm"
     showgrid="false"
     inkscape:zoom="11.844781"
     inkscape:cx="12.410529"
     inkscape:cy="21.992808"
     inkscape:window-width="1705"
     inkscape:window-height="1040"
     inkscape:window-x="39"
     inkscape:window-y="0"
     inkscape:window-maximized="0"
     inkscape:current-layer="layer1" />
  <defs
     id="defs2" />
  <g
     inkscape:label="Layer 1"
     inkscape:groupmode="layer"
     id="layer1">
    <path
       id="Selection"
       fill="white"
       stroke="white"
       stroke-width="0.073863"
       d="m 51.974363,1.2228564 c 0,0 19.299559,0 19.299559,0 0,0 34.505208,0 34.505208,0 0,0 47.95647,0 47.95647,0 0,0 12.86633,0.5206787 12.86633,0.5206787 0,0 5.84836,0.5323655 5.84836,0.5323655 25.23561,1.8427755 48.27808,11.0684934 63.49549,32.2284554 9.83106,13.671838 14.29332,30.198488 15.5098,46.801258 0,0 0.5322,5.85012 0.5322,5.85012 0,0 0.58481,12.870316 0.58481,12.870316 0,0 0,35.68596 0,35.68596 0,0 0,36.85593 0,36.85593 0,0 0,24.57063 0,24.57063 0,0 -0.58481,12.87037 -0.58481,12.87037 0,0 -0.5322,5.85011 -0.5322,5.85011 -1.52058,20.82069 -7.99471,40.37776 -22.88461,55.57058 -3.7663,3.84358 -9.94215,8.66993 -14.59744,11.44293 -5.93025,3.52762 -13.78458,6.75688 -20.46919,8.52365 -9.56205,2.52142 -19.94286,4.00734 -29.82658,4.02492 0,0 -9.94216,0.585 -9.94216,0.585 0,0 -98.252192,0 -98.252192,0 0,0 -8.772532,-0.585 -8.772532,-0.585 0,0 -2.924177,0 -2.924177,0 0,0 -5.848355,-0.53236 -5.848355,-0.53236 -20.99552,-1.53277 -42.6870479,-8.62898 -57.214312,-24.62332 -14.334299,-15.77786 -20.258707,-33.44532 -21.790973,-54.4064 0,0 -0.532154,-5.85011 -0.532154,-5.85011 0,0 -0.584864,-12.87037 -0.584864,-12.87037 0,0 0,-98.282535 0,-98.282535 0,0 0.561475,-5.850121 0.561475,-5.850121 0,0 0,-5.85018 0,-5.85018 0,0 0.555543,-5.85012 0.555543,-5.85012 1.532266,-20.961135 7.456674,-38.628583 21.790973,-54.406457 C -6.9944439,13.373609 11.878119,5.4876212 29.75068,3.0773705 c 0,0 14.036019,-1.3338354 14.036019,-1.3338354 3.169799,-0.034955 4.947686,0.1228657 8.187664,-0.5206787 z m 8.772532,26.8990096 c -3.830666,0.666917 -7.26948,0.526522 -11.111842,0.532365 0,0 -10.527028,0.684448 -10.527028,0.684448 -16.907537,1.620521 -31.007906,6.622377 -41.844912,20.376073 -10.339838,13.121891 -11.936458,32.444972 -11.959854,48.556276 0,0 -0.584813,8.775212 -0.584813,8.775212 0,0 0,41.53609 0,41.53609 0,0 0,41.53604 0,41.53604 0,0 0.584813,8.77526 0.584813,8.77526 0,0 0,6.43514 0,6.43514 0,0 0.532211,5.85018 0.532211,5.85018 1.327551,18.9779 6.1934196,35.83214 22.8611542,47.08199 13.7611818,9.29006 31.3529778,10.06229 47.3715978,10.24949 0,0 8.772532,0.58501 8.772532,0.58501 0,0 81.876806,0 81.876806,0 0,0 8.77253,-0.58501 8.77253,-0.58501 0,0 6.43316,0 6.43316,0 0,0 5.84835,-0.53236 5.84835,-0.53236 10.31652,-0.71956 20.54527,-2.37519 29.82655,-7.26003 19.34634,-10.18511 25.52802,-29.16301 26.95503,-49.53909 0,0 0.5556,-7.02019 0.5556,-7.02019 0,0 0,-8.19021 0,-8.19021 0,0 0.56146,-7.02019 0.56146,-7.02019 0,0 0,-81.90212 0,-81.90212 0,0 -0.58485,-8.775212 -0.58485,-8.775212 0,0 0,-6.435179 0,-6.435179 0,0 -0.53221,-5.850127 -0.53221,-5.850127 -0.87141,-12.425756 -3.22243,-25.518377 -10.97733,-35.68591 -14.41034,-18.913582 -35.93807,-21.610469 -58.08576,-21.645581 0,0 -9.94222,-0.532365 -9.94222,-0.532365 0,0 -44.44742,0 -44.44742,0 0,0 -40.353555,0 -40.353555,0 z M 179.46828,52.35905 c 1.96508,-0.315902 3.28682,-0.327642 5.26353,-0.304216 7.91864,0.09359 14.86645,5.686355 16.65023,13.45532 0.36844,1.591254 0.32749,3.615436 0.30997,5.265172 -0.0349,3.01279 -0.54977,5.540066 -2.06447,8.190208 -3.7663,6.587265 -9.43341,8.857121 -16.65022,8.775208 -10.85453,-0.128707 -17.07717,-8.377398 -16.9602,-18.720488 0.0348,-2.837288 0.43863,-5.042813 1.74861,-7.6052 2.46803,-4.814663 6.59697,-7.681213 11.70255,-9.056004 z M 99.34596,72.776079 c 8.12924,-0.988665 19.60954,0.585007 27.48722,2.849022 10.00071,2.872393 18.85505,7.517446 26.90242,14.139823 33.97301,27.969526 37.00831,80.837386 5.84834,112.053756 -6.33376,6.34742 -12.36926,11.10944 -20.46922,15.05831 -11.32826,5.52254 -23.71507,7.90357 -36.25972,7.75728 -6.058883,-0.0702 -14.041887,-1.59121 -19.884369,-3.26436 C 37.300869,208.28312 16.188388,155.076 37.505583,113.48143 46.254721,96.404831 61.928273,82.90855 80.046454,76.672249 86.918259,74.302951 92.316281,73.782274 99.34596,72.776079 Z m -0.584812,27.419641 c -22.685715,3.4633 -42.073023,22.31249 -42.108113,46.04654 -0.01196,8.11418 -0.02937,12.06299 2.959267,19.8905 6.380562,16.67879 23.820306,30.78934 42.073038,31.00581 9.68483,0.11117 15.59748,-0.11697 24.56302,-4.53973 6.46827,-3.18829 11.48031,-6.909 16.1999,-12.4257 17.51579,-20.47551 14.53312,-52.29453 -6.25773,-69.34769 -10.9481,-8.97999 -23.53959,-11.928454 -37.429382,-10.62973 z" />
  </g>
</svg>
