<?xml version="1.0" encoding="UTF-8" standalone="no"?>
<!-- Created with Inkscape (http://www.inkscape.org/) -->

<svg
   width="50px"
   height="50px"
   viewBox="0 0 210 297"
   version="1.1"
   id="svg5"
   inkscape:version="1.1.2 (b8e25be833, 2022-02-05)"
   sodipodi:docname="linkedin.svg"
   xmlns:inkscape="http://www.inkscape.org/namespaces/inkscape"
   xmlns:sodipodi="http://sodipodi.sourceforge.net/DTD/sodipodi-0.dtd"
   xmlns="http://www.w3.org/2000/svg"
   xmlns:svg="http://www.w3.org/2000/svg">
  <sodipodi:namedview
     id="namedview7"
     pagecolor="#505050"
     bordercolor="#eeeeee"
     borderopacity="1"
     inkscape:pageshadow="0"
     inkscape:pageopacity="0"
     inkscape:pagecheckerboard="0"
     inkscape:document-units="mm"
     showgrid="false"
     inkscape:zoom="9.6502117"
     inkscape:cx="27.615974"
     inkscape:cy="19.429626"
     inkscape:window-width="1284"
     inkscape:window-height="1040"
     inkscape:window-x="544"
     inkscape:window-y="19"
     inkscape:window-maximized="0"
     inkscape:current-layer="layer1" />
  <defs
     id="defs2" />
  <g
     inkscape:label="Layer 1"
     inkscape:groupmode="layer"
     id="layer1">
    <path
       id="Selection"
       fill="#ffffff"
       stroke="#ffffff"
       stroke-width="0"
       d="M -24.14507,1.7323576 H 0.50910563 47.07809 h 142.99423 40.5424 c 13.97071,-0.025897 21.89292,10.1460894 21.91482,23.5588674 v 208.081715 40.07909 c -0.1534,12.89671 -8.82071,22.48827 -21.91482,22.51016 H 21.328183 -19.762109 C -33.699935,295.94212 -41.655014,285.74478 -41.676931,272.354 V 67.017389 35.173714 c 0,-5.28162 -0.432839,-13.226083 0.97521,-18.117915 2.301058,-7.9938458 8.58513,-13.3414309 16.556651,-15.3234414 z M 19.684569,43.024849 c -3.555676,0.669792 -6.256681,1.762374 -9.313799,3.727844 -13.0557528,8.394676 -14.9897367,27.187941 -4.2898254,38.333187 4.3500944,4.529463 10.6999114,7.082458 16.8908464,7.560113 1.939465,0.148553 6.30599,-0.598526 8.218064,-1.163929 C 52.167819,85.289036 55.257808,56.33878 36.120687,45.775478 30.707728,42.788732 25.733061,42.420864 19.684569,43.024849 Z M 208.15204,252.03996 v -46.11842 l 0.5479,-7.13738 v -20.31403 l -0.52597,-6.58834 v -8.23542 l -1.04642,-10.43152 c -2.74484,-19.81447 -10.20682,-35.76926 -30.75197,-41.87994 -4.39941,-1.31213 -12.94618,-2.53649 -17.53187,-2.59135 -13.85564,-0.15959 -23.75565,2.62981 -34.51583,11.77112 -3.5228,2.99223 -9.86167,10.73898 -9.86167,10.73898 V 112.58671 H 73.375904 V 252.03996 H 116.1098 v -70.27567 l 0.4986,-6.58834 c 0.85467,-11.6778 4.28981,-23.84981 17.0333,-27.36354 2.53115,-0.69728 5.04039,-1.15296 7.67017,-1.1859 3.3201,-0.0389 6.11971,0.0454 9.3138,1.15296 11.77373,4.08476 14.77608,17.34927 14.79251,28.49453 v 75.76596 h 42.73391 z M 45.434484,112.58671 H 2.700585 v 139.45325 h 42.733899 z"
       sodipodi:nodetypes="cccccccccccccscccccccccccccccccccccccccccccccccccccc" />
  </g>
</svg>
