<?xml version="1.0" encoding="UTF-8" standalone="no"?>
<!-- Created with Inkscape (http://www.inkscape.org/) -->

<svg
   width="400px"
   height="500px"
   viewBox="0 0 210 297"
   version="1.1"
   id="svg4032"
   inkscape:version="1.1.2 (b8e25be833, 2022-02-05)"
   sodipodi:docname="presentation_selected.svg"
   xmlns:inkscape="http://www.inkscape.org/namespaces/inkscape"
   xmlns:sodipodi="http://sodipodi.sourceforge.net/DTD/sodipodi-0.dtd"
   xmlns:xlink="http://www.w3.org/1999/xlink"
   xmlns="http://www.w3.org/2000/svg"
   xmlns:svg="http://www.w3.org/2000/svg">
  <sodipodi:namedview
     id="namedview4034"
     pagecolor="#505050"
     bordercolor="#eeeeee"
     borderopacity="1"
     inkscape:pageshadow="0"
     inkscape:pageopacity="0"
     inkscape:pagecheckerboard="0"
     inkscape:document-units="mm"
     showgrid="false"
     inkscape:zoom="1.0469406"
     inkscape:cx="92.173328"
     inkscape:cy="259.80461"
     inkscape:window-width="1920"
     inkscape:window-height="1017"
     inkscape:window-x="-8"
     inkscape:window-y="-8"
     inkscape:window-maximized="1"
     inkscape:current-layer="layer1" />
  <defs
     id="defs4029">
    <linearGradient
       inkscape:collect="always"
       id="linearGradient7299">
      <stop
         style="stop-color:#e3e2db;stop-opacity:1;"
         offset="0"
         id="stop7295" />
      <stop
         style="stop-color:#6c6753;stop-opacity:1"
         offset="1"
         id="stop7297" />
    </linearGradient>
    <marker
       style="overflow:visible"
       id="DotL"
       refX="0.0"
       refY="0.0"
       orient="auto"
       inkscape:stockid="DotL"
       inkscape:isstock="true">
      <path
         transform="scale(0.8) translate(7.4, 1)"
         style="fill-rule:evenodd;fill:context-stroke;stroke:context-stroke;stroke-width:1.0pt"
         d="M -2.5,-1.0 C -2.5,1.7600000 -4.7400000,4.0 -7.5,4.0 C -10.260000,4.0 -12.5,1.7600000 -12.5,-1.0 C -12.5,-3.7600000 -10.260000,-6.0 -7.5,-6.0 C -4.7400000,-6.0 -2.5,-3.7600000 -2.5,-1.0 z "
         id="path6268" />
    </marker>
    <clipPath
       clipPathUnits="userSpaceOnUse"
       id="clipPath6725">
      <path
         id="path6727"
         style="fill:#ff0000;fill-opacity:1;fill-rule:nonzero;stroke:none;stroke-width:0.594"
         d="M -12.997172,0.80282813 V 296.47909 H 223.30345 V 67.586062 c -0.0439,4.88e-4 -0.0833,0.0012 -0.13342,0.0012 -0.074,3.75e-4 -0.14762,0.0012 -0.22158,0 -0.0624,0.0069 -0.12479,0.01675 -0.18679,0.0093 -0.0338,-0.0042 -0.0684,-0.0089 -0.10209,-0.0139 -0.005,-4.75e-4 -0.0119,-0.0018 -0.0174,-0.0024 -0.0661,-0.0078 -0.15976,-0.02691 -0.23783,-0.04176 -0.0104,-0.0018 -0.0209,-0.0036 -0.0313,-0.0059 -0.022,-0.0042 -0.0419,-0.0071 -0.058,-0.0093 -0.12304,-0.01693 -0.24346,-0.04663 -0.36428,-0.07541 -0.0837,-0.0199 -0.16558,-0.0471 -0.24828,-0.07077 l 0.0406,-0.142702 c -0.0681,6e-6 -0.13611,-3.86e-4 -0.20419,0 -0.0542,2.67e-4 -0.15258,-0.0018 -0.24247,-0.0024 -0.24796,0.0417 -0.49603,0.06629 -0.74366,0.03594 -0.39005,-0.04752 -0.78375,-0.103238 -1.17292,-0.177499 h -0.54527 -0.44782 c -0.34016,0.04871 -0.68028,0.09816 -1.02094,0.142696 -0.11611,0.01521 -0.23327,0 -0.35037,0 h -0.96408 -2.13353 -2.8273 v -0.365446 c -0.89811,0.06312 -1.79319,0.100427 -2.69504,0.0812 v -2.372519 c -0.35158,-0.250543 -0.58408,-0.601888 -0.70306,-1.059221 -0.10869,0.0087 -0.21719,0.02079 -0.32601,0.02786 -0.42458,0.02744 -0.85064,0 -1.27617,0 h -3.22639 V 62.964 c -0.21965,-0.09121 -0.44118,-0.181491 -0.59864,-0.330644 -0.74689,-0.707496 -1.40806,-1.503937 -2.00591,-2.350476 h -0.17751 c -0.61723,-1.2e-5 -1.23435,0 -1.85161,0 -1.22913,0.02768 -2.44254,-0.203706 -3.60924,-0.570798 -0.18443,-0.05803 -0.73767,-0.227954 -0.54759,-0.192587 0.59255,0.110252 1.17356,0.279465 1.75995,0.418818 1.33924,0.06956 1.35145,-0.209552 2.08132,-0.628805 -0.16952,-0.403598 -0.33,-0.774443 -0.49306,-1.153196 -0.016,-5.41e-4 -0.0112,-3.4e-5 -0.0279,-0.0012 -0.29141,-0.0098 -0.5832,-1.6e-4 -0.87476,-0.0012 -1.93088,-0.0017 -3.86181,0.0027 -5.79266,0.0093 -0.3316,-0.0049 -0.6627,-0.0066 -0.99425,-0.01392 -0.8915,-0.0196 -0.30846,-0.09546 -1.23673,0.02204 l -0.48379,-3.867907 c -1.67468,-0.717499 -2.81585,-2.552857 -4.50373,-7.195289 -1.13375,-3.118329 2.28756,-4.808217 4.85758,-5.771778 -0.10251,-0.726932 -0.20365,-1.454049 -0.30512,-2.181093 -1.09706,-0.147947 -2.18588,-0.352577 -3.26933,-0.649688 -1.43447,-0.586647 -1.75734,-0.646163 -3.3018,-1.882934 -0.0853,-0.06831 -0.16314,-0.1493 -0.24711,-0.221589 -0.99642,-0.13333 -1.97747,-0.340737 -2.9468,-0.598641 -0.88312,0.403146 -1.35151,0.401959 -1.0453,-0.292359 -0.13866,-0.04049 -0.27805,-0.07811 -0.4165,-0.119497 -0.9451,-0.369442 -1.81177,-0.63817 -2.63587,-1.275011 -0.58256,-0.450185 -1.2689,-0.862762 -1.60334,-1.518645 -0.73864,-1.44854 -0.91911,-3.12551 -1.53257,-4.631344 -0.015,-0.03687 -0.0198,-0.0012 -0.0197,0.06033 0.0352,0.08955 0.19202,0.945369 0.62997,2.590629 0.01,0.03645 0.0564,0.06679 0.0464,0.103253 -0.006,0.0225 -0.0238,-0.01954 -0.0429,-0.04641 0.005,0.0093 0.01,0.01859 0.0151,0.02784 0.009,0.01602 -0.0428,-0.05674 -0.0279,-0.04641 0.004,0.003 0.008,0.01237 0.0128,0.01856 -0.33593,-0.610922 -0.67261,-1.220255 -1.00934,-1.830726 -0.004,0.09106 -0.24599,-0.267727 -0.28656,-0.327165 -0.21744,-0.318406 -0.42407,-0.645318 -0.63577,-0.96757 -0.51229,-0.969803 -0.54515,-1.043726 -0.51858,-0.994254 -6e-4,-4.74e-4 -0.002,-1.54e-4 -0.002,-0.0012 0.0215,0.04207 0.0154,0.03692 -0.0197,-0.01508 -0.5156,-0.353223 -1.03452,-0.761312 -1.47572,-1.181039 -0.23569,-0.224219 -0.49142,-0.437726 -0.66941,-0.710016 -0.49192,-0.752523 -0.88661,-1.564639 -1.32954,-2.346996 -0.29876,-0.941298 -0.39782,-1.682821 -0.39677,-2.483894 -0.43882,-0.233536 -0.77379,-0.479634 -0.94553,-0.732059 -0.55247,-0.346657 -1.01485,-0.693599 -1.27037,-0.983813 -0.72262,-0.622111 -0.94845,-1.220929 -0.67173,-2.146289 -0.0899,-0.0404 -0.17083,-0.07973 -0.25756,-0.119496 0.01,0.01989 0.11162,0.275312 0.0963,0.233192 -0.0295,-0.0809 -0.0704,-0.158508 -0.10558,-0.237832 -0.19556,-0.08974 -0.40205,-0.180564 -0.58123,-0.270317 -0.34755,-0.01551 -0.64894,-0.231147 -0.90841,-0.52323 -0.72786,-0.495487 -1.26141,-1.115838 -1.59522,-2.120766 -6.25558,2.359348 -4.78422,-0.329262 -1.811,-3.4050582 -0.17206,-0.2897099 -0.34326,-0.5802864 -0.51511,-0.8701174 -1.14336,0.3311176 -1.19922,0.02354 -1.20192,-1.8028826 -0.31954,-0.1948754 -0.40337,-0.6824882 -0.42346,-1.5673713 -0.002,-6.55e-5 -0.004,6.5e-5 -0.006,0 V 4.8865781 c 0,-0.097417 3e-5,-0.1949419 0,-0.2923593 -0.0625,-0.1903732 -0.11594,-0.3813539 -0.17518,-0.5719571 l -0.38981,0.1461797 c -0.13401,-0.3640381 -0.5321,-1.296673 -0.30976,-1.6056563 0.006,-0.00795 0.0116,-0.015323 0.0174,-0.023203 0,-0.00352 3e-5,-0.00691 0,-0.010441 0.004,-0.080845 0.005,-0.1614522 0.005,-0.2424727 l -0.37125,-0.092813 c -0.25637,0.3553303 -0.0466,-0.00489 0.0453,-0.2204297 -0.005,-0.066269 -0.0154,-0.1662811 -0.0325,-0.3399257 -0.0125,-0.276935 0.008,-0.5536999 0.007,-0.83067191 z M 157.28128,9.509801 c 0.0788,0.1326485 0.15895,0.2646817 0.23667,0.3979337 0.34011,0.3627663 0.60329,0.8165463 1.01978,1.0882263 0.0344,0.02243 0.0689,0.0552 0.10326,0.07889 -0.12844,-0.437965 -0.20792,-0.869748 -0.2448,-1.3179371 -0.17862,-0.1951034 -0.35683,-0.3897008 -0.53483,-0.5847187 -0.0588,-0.023172 -0.11771,-0.043029 -0.17635,-0.067289 -0.13574,0.1361156 -0.27316,0.2698245 -0.40373,0.4048948 z m 0.40373,-0.4048947 c 0.0197,-0.01975 0.0405,-0.039406 0.0603,-0.059168 -0.13005,-0.1423539 -0.26085,-0.2852501 -0.39098,-0.4269375 -0.0368,-0.040024 -0.0539,-0.090277 -0.0754,-0.1380587 -0.18774,0.06032 -0.35346,0.1133263 -0.50234,0.1566212 0.0855,0.070463 0.17809,0.1356554 0.28539,0.1879452 0.20667,0.1007139 0.4144,0.1932733 0.623,0.2795982 z m 0.0603,-0.059168 c 0.0385,0.042198 0.0775,0.084223 0.11601,0.1264567 0.16807,0.066302 0.33612,0.1313815 0.50467,0.1891058 -0.009,-0.2935346 -3.4e-4,-0.610509 0.0174,-0.9432072 -0.21836,0.2091224 -0.42844,0.4183423 -0.63808,0.6276447 z m 0.89564,2.0291127 c 0.0338,0.11526 0.0656,0.229995 0.10673,0.348047 -0.0177,-0.0998 -0.0294,-0.200271 -0.0441,-0.300481 -0.0209,-0.01477 -0.0418,-0.03322 -0.0627,-0.04757 z m 0.10673,0.348047 c 0.0488,0.275028 0.10384,0.54968 0.16242,0.82255 0.0519,0.241559 0.11348,0.462668 0.18214,0.669411 0.0885,-0.03338 0.17289,-0.06319 0.26452,-0.09861 -0.25558,-0.506605 -0.46066,-0.96701 -0.60908,-1.393348 z m 4.36799,6.676699 c 0.31163,0.26829 0.71207,0.543204 1.1996,0.855035 -0.11792,-0.263556 -0.0472,-0.531578 0.2854,-0.799348 -1.01578,-0.09105 -1.89465,-0.196454 -1.30634,-0.4513 0.58553,-0.253638 1.21083,-0.383059 1.85393,-0.459422 -0.36733,-0.194836 -0.72627,-0.378667 -1.0627,-0.538313 -0.35829,0.253799 -0.72568,0.523371 -1.10447,0.810949 -0.16039,0.12177 -0.0874,0.330317 0.13458,0.582399 z m 1.485,0.05569 c 0.12545,0.01124 0.246,0.02261 0.37357,0.03364 -0.0627,-0.09937 -0.0554,-0.08698 -0.12994,-0.204188 -0.0946,0.05653 -0.17318,0.113825 -0.24363,0.170543 z m 0.37357,0.03364 c 0.19062,0.302204 0.28996,0.453931 0.39561,0.620683 0.002,-0.02769 10e-4,-0.0517 0.002,-0.08237 0.006,-0.07144 0.034,-0.284814 0.0267,-0.213469 -0.0112,0.109608 -0.0142,0.201773 -0.0232,0.306282 0.0186,0.02935 0.054,0.0843 0.0708,0.110215 0.0174,-0.05923 0.0331,-0.119154 0.0499,-0.178665 -0.028,-0.217526 -0.0416,-0.40437 -0.0209,-0.513949 -0.1703,-0.0161 -0.32362,-0.03338 -0.50119,-0.04873 z m 0.47218,0.74134 c -0.0295,0.100291 -0.0517,0.203452 -0.0835,0.3028 -0.0111,0.03485 -0.002,-0.07364 -0.005,-0.110215 5.8e-4,-0.04246 0.004,-0.07843 0.005,-0.116015 -0.0147,0.196776 -0.0312,0.399123 -0.0359,0.583558 0.088,0.0547 0.16925,0.105187 0.26103,0.162422 0.0325,0.01634 0.0649,0.03032 0.0975,0.04641 -0.0483,-0.235701 -0.0712,-0.338912 -0.10673,-0.508148 -3.5e-4,-0.0047 -0.001,-0.01152 -0.001,-0.01624 -0.0123,-0.06544 -0.0177,-0.117843 -0.029,-0.183305 -0.0206,-0.03111 -0.0779,-0.123505 -0.10209,-0.161262 z m 0.1311,0.344566 c 0.0456,0.242275 0.0706,0.349205 0.10906,0.52555 0.37899,0.187016 0.75863,0.364183 1.1207,0.502348 -0.0415,-0.0444 -0.0605,-0.06902 -0.0104,-0.03132 0.021,0.01582 0.0396,0.03493 0.0603,0.05105 0.25055,0.09412 0.48909,0.172265 0.71002,0.230871 -0.0248,-0.03875 -0.0534,-0.08 -0.0777,-0.118336 -1.00816,-0.718443 -1.36137,-0.831306 -1.53721,-0.902602 0.0112,0.07216 0.0296,0.143234 0.0383,0.21579 0.021,0.175742 -0.0247,0.0136 -0.0824,-0.234352 -0.0859,-0.04283 -0.20917,-0.195189 -0.33992,-0.390973 0.003,0.04804 0.007,0.107833 0.009,0.151981 z m 0.33064,0.238992 c 0.0131,0.0065 0.0296,0.01268 0.0441,0.01856 -0.0655,-0.423059 -0.152,-0.842822 -0.23435,-1.26341 -0.008,-8.91e-4 -0.0147,-0.0026 -0.0232,-0.0035 0.0108,0.124919 0.0152,0.239764 0.0383,0.387493 0.0306,0.195745 0.11063,0.583283 0.17519,0.860835 z m -0.22158,0.286558 -0.001,-0.0012 c 0.002,0.0081 0.002,0.0096 0.005,0.01741 -0.001,-0.0053 0.002,-0.01079 -0.004,-0.01624 z m 0.004,0.01624 c 0.013,0.05989 0.0288,0.137707 0.0383,0.182145 v 0.0012 0.0012 0.0012 0.0012 h 0.001 c 0.26583,0.122744 0.54896,0.241716 0.85388,0.355008 -0.2097,-0.126165 -0.40528,-0.28556 -0.62069,-0.401414 -0.0735,-0.03953 0.12533,0.111921 0.19723,0.154301 -0.18045,-0.114604 -0.30162,-0.18953 -0.46986,-0.29468 z m 0.0383,0.182145 c -0.007,-0.0341 -0.0229,-0.100603 -0.0394,-0.182145 -0.0362,-0.02264 -0.0653,-0.04158 -0.10093,-0.06381 -0.0866,-0.0435 -0.1742,-0.07792 -0.25988,-0.122977 -10e-4,0.06304 0.008,0.123494 0.008,0.185625 0.11878,0.0632 0.25937,0.122124 0.39214,0.183305 z M 153.97832,1.8365274 c -0.0184,0.00476 -0.0218,0.072267 -0.0209,0.1334179 0.034,-0.080487 0.0529,-0.1416366 0.0209,-0.1334179 z m 0.47682,0.5475937 c -2.4e-4,8.019e-4 2.4e-4,0.00151 0,0.00232 0.005,0.012295 0.009,0.024961 0.0139,0.037125 0.002,0.00503 0.0113,0.01428 0.0139,0.019723 -0.006,-0.016716 -0.0132,-0.033187 -0.0197,-0.049886 -0.002,-0.00325 -0.005,-0.00603 -0.008,-0.00928 z m 0.0279,0.059168 c 0.001,0.00343 4.8e-4,0.007 0.004,0.010441 6e-4,3.627e-4 0.002,8.732e-4 0.005,0.00116 0.0372,0.072852 0.10441,0.1701402 0.17403,0.2575546 -0.003,-0.023252 -0.009,-0.046331 -0.0116,-0.069609 -0.0438,-0.059186 -0.0884,-0.1178802 -0.13341,-0.1763437 -0.01,-0.00386 -0.0185,-0.00783 -0.0279,-0.011601 -0.002,-0.00317 -0.005,-0.00855 -0.007,-0.011601 z m -0.18679,0.4443398 c -10e-4,0.00312 -10e-4,0.00498 -0.002,0.00812 -0.0203,0.06142 0.0282,0.2569198 0.0208,0.1925859 -0.007,-0.069227 -0.0131,-0.1345609 -0.0185,-0.200707 z m 1.01978,2.3910821 c 0.0588,0.2260157 0.0887,0.3531629 0.16474,0.5847187 0.008,-0.046534 0.0214,-0.092735 0.0302,-0.1392187 -0.0204,-0.042945 -0.0408,-0.086762 -0.0603,-0.1345782 -0.0211,-0.041201 -0.0419,-0.082778 -0.0626,-0.1241367 -0.0146,-0.06256 -0.0381,-0.1243662 -0.0545,-0.1867851 -0.006,-2.102e-4 -0.0113,2.085e-4 -0.0174,0 z m 0.13457,0.3109218 c 0.0213,0.041507 0.0416,0.083737 0.0626,0.1252969 0.0128,-0.06779 0.0297,-0.1353381 0.0441,-0.2030273 -0.0517,-0.064445 -0.0954,-0.1407294 -0.13226,-0.2285508 -0.0195,-6.95e-4 -0.0361,-0.00164 -0.0557,-0.00232 0.004,0.023939 0.006,0.047997 0.009,0.07193 0.0105,0.074525 0.039,0.1562015 0.0719,0.2366718 z m 0.0626,0.1252969 c -5.7e-4,0.00312 -0.002,0.00616 -0.002,0.00928 0.009,0.018145 0.0174,0.040233 0.0255,0.056848 0.007,0.013964 0.0111,0.018181 0.0232,0.040605 V 5.807742 C 155.5445,5.776826 155.5291,5.745711 155.5135,5.71493 Z m 1.49429,1.1137502 c -0.051,0.00947 -0.13165,0.027645 -0.17983,0.035967 -0.13224,0.4167337 -0.0592,0.6606533 0.32601,0.5974802 -0.025,-0.1817509 -0.0475,-0.3613332 -0.0673,-0.5394726 -0.0262,-0.031434 -0.0527,-0.06251 -0.0789,-0.093973 z m 0.1949,0.2343514 c 0.045,0.1167293 0.0896,0.2336374 0.13458,0.3503673 0.0233,-0.00734 0.0412,-0.00967 0.0661,-0.018562 0,-0.029819 10e-6,-0.059514 0,-0.089332 -0.0664,-0.08124 -0.13354,-0.1617742 -0.20071,-0.2424726 z m -0.99541,0.599801 c 0.10973,0.3779069 0.26919,0.7124531 0.54295,0.9501677 -0.18592,-0.31385 -0.36636,-0.6310727 -0.54295,-0.9501677 z m 1.87945,0.5707966 c -0.008,0.00255 -0.0174,0.0044 -0.0255,0.00696 0.0319,0.026671 0.0406,0.023154 0.0255,-0.00696 z m 1.43163,4.9063011 c 0.0578,0.793881 0.0416,1.013326 0.5476,0.989613 -0.005,-0.0092 -0.0122,-0.01988 -0.0174,-0.029 -0.19691,-0.345057 -0.37277,-0.662174 -0.53019,-0.96061 z m 6.42147,3.331968 c 0.005,0.05815 0.0156,0.106079 0.022,0.164742 0.0263,-9e-6 0.0526,0.0012 0.0789,0.0012 0.007,-0.01983 0.0157,-0.03934 0.0232,-0.05917 0.006,-0.02111 0.0129,-0.04156 0.0185,-0.06265 -0.0476,-0.01455 -0.0951,-0.02947 -0.1427,-0.04409 z m 0.10093,0.165903 c -0.0189,0.05043 -0.0392,0.100326 -0.058,0.15082 0.002,0.01797 0.004,0.0332 0.006,0.05105 0.0174,-0.06807 0.0401,-0.134024 0.058,-0.201866 -0.002,0 -0.004,-3e-6 -0.006,0 z m -0.058,0.15082 c -0.007,-0.05367 -0.0161,-0.09783 -0.0208,-0.151981 -0.0472,2.3e-5 -0.0944,-0.0023 -0.14154,-0.0023 -0.008,0.01228 -0.0169,0.02362 -0.0244,0.03597 -0.027,0.179969 -0.052,0.372039 -0.0719,0.524391 0.0383,-0.0028 0.0765,-0.0068 0.11486,-0.0093 0.048,-0.132314 0.0948,-0.264841 0.14386,-0.396774 z m 2.92475,-0.180985 c -0.0576,8.91e-4 -0.11524,0.0015 -0.17286,0.0023 -0.0513,0.17061 -0.0568,0.306718 -0.022,0.410695 0.0392,-0.0041 0.0781,-0.0094 0.11717,-0.01392 0.003,-0.0039 0.006,-0.0077 0.009,-0.0116 -0.0695,0.0052 -0.0735,-0.05611 0.0174,-0.211149 0.0312,-0.05317 0.0696,-0.100931 0.1021,-0.15314 -0.0172,-0.0072 -0.034,-0.01597 -0.051,-0.0232 z m -3.25539,0.359649 c -0.0242,0.07305 -0.0415,0.154368 -0.058,0.236672 0.0112,-8.91e-4 0.0226,-0.0014 0.0336,-0.0023 0.005,-0.07602 0.0169,-0.155983 0.0244,-0.234351 z m -0.0893,0.495387 c -0.0222,0.195008 -0.0374,0.392821 -0.0371,0.602121 0.0362,-0.105174 0.0757,-0.209372 0.11253,-0.314403 -0.007,-0.07478 -0.005,-0.162244 -0.006,-0.247113 -0.0229,-0.01288 -0.0468,-0.02789 -0.0696,-0.04061 z m 3.93758,0.06729 c -0.0429,0.01577 -0.32161,0.115441 -0.3933,0.140379 0.32658,0.269465 0.65807,0.535348 1.00354,0.792386 0.13539,-0.207177 0.28129,-0.432817 0.41069,-0.629965 -0.34064,-0.0999 -0.67985,-0.204139 -1.02093,-0.3028 z m -3.81576,0.0035 c -0.002,0.03096 0.002,0.06405 -0.004,0.09513 0.01,-0.0271 0.0194,-0.05412 0.029,-0.08121 -0.008,-0.0047 -0.0172,-0.0092 -0.0255,-0.01392 z m -0.0139,0.494226 c 6e-4,0.02036 0.006,0.04766 0.007,0.06845 l 0.006,-0.01392 c -0.003,-0.01822 -0.008,-0.03629 -0.0116,-0.05453 z m -0.14038,0.21695 c 0.002,0.117571 0.004,0.2358 0.009,0.349206 0.0305,-0.112367 0.0639,-0.223411 0.0928,-0.336445 -0.0381,-0.0039 -0.0631,-0.009 -0.1021,-0.01276 z m 0.76919,0.09629 c 0.0245,0.07611 0.0441,0.116123 0.0568,0.103254 -0.0189,-0.04113 -0.0231,-0.063 -0.0395,-0.100934 -0.005,-8.31e-4 -0.0126,-0.0015 -0.0174,-0.0023 z m 1.12535,2.307551 c 0.0877,0.02806 0.17274,0.05872 0.26103,0.08585 -0.005,-0.007 -0.009,-0.01392 -0.0139,-0.02088 -0.0827,-0.02061 -0.1647,-0.04334 -0.24711,-0.06497 z m 1.33302,5.151094 c -0.0277,0.0039 0.14873,0.316179 0.21347,0.431578 0.0622,0.11076 0.11469,0.151306 0.1485,0.172863 -0.02,-0.03352 -0.009,-0.0132 -0.0371,-0.06033 -0.10209,-0.173861 -0.15794,-0.380648 -0.29932,-0.52439 -0.0132,-0.01348 -0.0216,-0.02029 -0.0255,-0.01972 z m 0.38633,0.643887 c -0.005,0.0048 -0.007,0.0085 -0.022,0.01856 0.022,0.01733 0.0299,0.0247 0.0661,0.05221 -0.0103,-0.01592 -0.0257,-0.04059 -0.0441,-0.07077 z m 8.34617,2.508257 c -0.0624,0.01209 0.46621,0.755608 0.69377,1.000055 0.22825,0.245208 0.47352,0.474224 0.72394,0.697254 0.0239,-0.03408 0.0482,-0.06845 0.0731,-0.103254 -0.0884,-0.169135 -0.19391,-0.334006 -0.2854,-0.502348 -0.30917,-0.294296 -0.67369,-0.632587 -1.14044,-1.048781 -0.0356,-0.03176 -0.0561,-0.04463 -0.065,-0.04293 z m 7.35655,8.403012 c -0.11413,-0.01397 0.22665,0.03641 0.34108,0.04757 0.15217,0.01484 0.34178,0.122731 0.4629,0.04524 -0.13082,-0.0056 -0.20319,-0.01923 -0.80398,-0.09281 z m 13.09004,22.370136 c -0.1364,0.01491 -0.27002,0.04473 -0.40373,0.07773 0.006,-5.88e-4 0.0172,1.25e-4 0.022,-0.0012 0.12863,-0.01841 0.51086,-0.09068 0.38169,-0.07657 z m -0.52091,0.107894 c -0.0366,0.0095 -0.0736,0.01835 -0.11022,0.02786 0.0606,-0.0081 0.10494,-0.01734 0.16242,-0.02554 -0.0175,-2.32e-4 -0.0348,-0.0018 -0.0522,-0.0024 z m 25.61857,7.636143 c 0.0132,0.003 0.0542,0.01111 0.0719,0.01277 0.054,0.0053 0.10938,0.01942 0.16358,0.02323 -0.0345,-0.006 -0.086,-0.01461 -0.23551,-0.036 z" />
    </clipPath>
    <linearGradient
       inkscape:collect="always"
       xlink:href="#linearGradient7299"
       id="linearGradient7293"
       x1="170.54649"
       y1="56.066208"
       x2="223.3029"
       y2="0.80237871"
       gradientUnits="userSpaceOnUse" />
  </defs>
  <g
     inkscape:label="Layer 1"
     inkscape:groupmode="layer"
     id="layer1">
    <rect
       style="fill:#e3e2db;stroke-width:0.594;marker-start:url(#DotL)"
       id="rect4160"
       width="236.30052"
       height="295.67618"
       x="-12.997622"
       y="0.80237871"
       rx="6.2196551e-17"
       clip-path="url(#clipPath6725)" />
    <path
       style="fill:#aca793;stroke:#6c6753;stroke-width:0.594px;stroke-linecap:butt;stroke-linejoin:miter;stroke-opacity:1"
       d="m 153.84847,1.0860624 68.60339,66.1962416 h -68.60339 v -66.1962416 0"
       id="path5378" />
    <path
       style="fill:url(#linearGradient7293);stroke:#ACA793;stroke-width:0.590919px;stroke-linecap:butt;stroke-linejoin:miter;stroke-opacity:1;fill-opacity:1;opacity:0.603"
       d="M 156.20111,64.795583 220.37462,65.293567 157.10073,4.3407815 155.35146,2.5978506 Z"
       id="path6951" />
    <path
       style="fill:#c83737"
       id="a02c2c"
       sodipodi:type="arc"
       sodipodi:cx="107.37476"
       sodipodi:cy="160.67635"
       sodipodi:rx="88.261658"
       sodipodi:ry="86.055115"
       sodipodi:start="0"
       sodipodi:end="6.2762564"
       sodipodi:open="true"
       sodipodi:arc-type="arc"
       d="M 195.63642,160.67635 A 88.261658,86.055115 0 0 1 107.52765,246.73133 88.261658,86.055115 0 0 1 19.113635,160.97448 88.261658,86.055115 0 0 1 106.91609,74.622393 88.261658,86.055115 0 0 1 195.6343,160.08008" />
    <path
       style="fill:#ff6600;stroke:#d45500;stroke-width:0.594px;stroke-linecap:butt;stroke-linejoin:miter;stroke-opacity:1"
       d="M 109.60242,156.30973 H 19.390994 c 0,0 -0.567367,-32.90731 27.517321,-58.438851 C 74.993003,72.339346 109.60242,74.608818 109.60242,74.608818 Z"
       id="path1709" />
    <path
       style="fill:#00aad4;stroke:#0088aa;stroke-width:0.594px;stroke-linecap:butt;stroke-linejoin:miter;stroke-opacity:1"
       d="M 109.60242,156.30973 H 19.390994 c 0,0 -2.442125,27.01608 15.035238,52.76517 9.669169,14.24541 19.645098,20.28339 19.645098,20.28339 l 55.53109,-73.04856"
       id="path1890"
       sodipodi:nodetypes="ccscc" />
    <path
       style="fill:#ffcc00;stroke:#d4aa00;stroke-width:0.594px;stroke-linecap:butt;stroke-linejoin:miter;stroke-opacity:1"
       d="m 109.5315,156.23881 -55.141026,73.3677 c 0,0 8.524367,6.54872 23.013841,11.80833 6.622167,2.40381 13.165769,3.65026 13.165769,3.65026 z"
       id="path2547"
       sodipodi:nodetypes="ccscc" />
  </g>
</svg>
